<?xml version="1.0" encoding="UTF-8" standalone="no"?>
<svg
   xmlns:dc="http://purl.org/dc/elements/1.1/"
   xmlns:cc="http://creativecommons.org/ns#"
   xmlns:rdf="http://www.w3.org/1999/02/22-rdf-syntax-ns#"
   xmlns:svg="http://www.w3.org/2000/svg"
   xmlns="http://www.w3.org/2000/svg"
   xmlns:sodipodi="http://sodipodi.sourceforge.net/DTD/sodipodi-0.dtd"
   xmlns:inkscape="http://www.inkscape.org/namespaces/inkscape"
   version="1.1"
   id="レイヤー_1"
   x="0px"
   y="0px"
   viewBox="0 0 841.89 2307.49"
   style="enable-background:new 0 0 841.89 2307.49;"
   xml:space="preserve"
   sodipodi:docname="frontive_web_original_アートボード 1 のコピー 3.svgz"><metadata
   id="metadata15"><rdf:RDF><cc:Work
       rdf:about=""><dc:format>image/svg+xml</dc:format><dc:type
         rdf:resource="http://purl.org/dc/dcmitype/StillImage" /></cc:Work></rdf:RDF></metadata><defs
   id="defs13" /><sodipodi:namedview
   pagecolor="#ffffff"
   bordercolor="#666666"
   borderopacity="1"
   objecttolerance="10"
   gridtolerance="10"
   guidetolerance="10"
   inkscape:pageopacity="0"
   inkscape:pageshadow="2"
   inkscape:window-width="640"
   inkscape:window-height="480"
   id="namedview11" />
<style
   type="text/css"
   id="style2">
	.st0{fill:none;stroke:#C7D1EB;stroke-width:2.126;stroke-miterlimit:10;}
	.st1{fill:#417ABE;}
</style>
<path
   class="st1"
   d="M611.15,972c0.16,0.06,0.32,0.12,0.48,0.19c-54.87-20.42-120.4-34.1-197.49-34.07  C126.03,938.24,0,847.69,0,847.69c134.31,103.74,421.21,100.1,421.21,100.1c102.14,0,181.58,19.89,242.52,47.18  c-4.68-2.37-9.46-4.7-14.34-6.98c6.07,2.79,11.97,5.62,17.69,8.5c-1.11-0.51-2.23-1.02-3.36-1.52  c99.77,50.53,154.34,120.18,171.84,145.45c4.38,7.19,6.32,11.36,6.32,11.36v-138.91C746.63,1023.53,611.15,972,611.15,972z"
   id="path4" />
<path
   class="st1"
   d="M611.15,1333.92c0.16,0.06,0.32,0.12,0.48,0.19c-54.87-20.42-120.4-34.1-197.49-34.07  C126.03,1300.15,0,1209.6,0,1209.6c134.31,103.74,421.21,100.1,421.21,100.1c102.14,0,181.58,19.89,242.52,47.18  c-4.68-2.37-9.46-4.7-14.34-6.98c6.07,2.79,11.97,5.62,17.69,8.5c-1.11-0.51-2.23-1.02-3.36-1.52  c99.77,50.53,154.34,120.18,171.84,145.45c4.38,7.19,6.32,11.36,6.32,11.36v-138.91C746.63,1385.44,611.15,1333.92,611.15,1333.92z"
   id="path6" />
<path
   class="st1"
   d="M611.15,609.49c0.16,0.06,0.32,0.12,0.48,0.19c-54.87-20.42-120.4-34.1-197.49-34.07  C126.03,575.72,0,485.17,0,485.17c134.31,103.74,421.21,100.1,421.21,100.1c102.14,0,181.58,19.89,242.52,47.18  c-4.68-2.37-9.46-4.7-14.34-6.98c6.07,2.79,11.97,5.62,17.69,8.5c-1.11-0.51-2.23-1.02-3.36-1.52  c99.77,50.53,154.34,120.18,171.84,145.45c4.38,7.19,6.32,11.36,6.32,11.36V650.36C746.63,661.01,611.15,609.49,611.15,609.49z"
   id="path8" />
</svg>
