<svg xmlns="http://www.w3.org/2000/svg" width="841.88" height="304.09" viewBox="0 0 841.88 304.09"><defs><style>.a{fill:#fff;}.b{fill:#417abe;}</style></defs><g transform="translate(13093 -1964)"><path class="a" d="M841.837,304H0V0A273.332,273.332,0,0,0,25,17.1c8.575,5.213,17.862,10.272,27.6,15.034a480.8,480.8,0,0,0,60.9,24.4C151.432,68.99,195.119,79.04,243.343,86.405c19.5,2.978,39.871,5.531,60.55,7.589,17.141,1.706,34.647,3.087,52.032,4.107,30.962,1.816,53.464,2.012,61.7,2.012,2.133,0,3.35-.013,3.572-.016h.006c24.75,0,49.112,1.189,72.41,3.534a622.046,622.046,0,0,1,64.293,9.821,545.719,545.719,0,0,1,56.569,14.937,490.886,490.886,0,0,1,49.238,18.883l.217.109c11.986,6.081,23.854,12.718,35.275,19.728,10.6,6.506,21.074,13.492,31.133,20.765a489.3,489.3,0,0,1,50.226,41.676,454.843,454.843,0,0,1,34.815,36.928c9.4,11.185,16.157,20.449,20.175,26.25,3.976,6.525,5.926,10.532,6.277,11.268Z" transform="translate(-13093 1964)"/><path class="b" d="M611.63,574.28c-54.87-20.42-120.4-34.1-197.49-34.07C126.03,540.33,0,449.78,0,449.78c134.31,103.74,421.21,100.1,421.21,100.1,102.14,0,181.58,19.89,242.52,47.18l.206.1c99.673,50.565,154.141,120.1,171.624,145.346a129.8,129.8,0,0,1,6.32,11.36V614.96C746.63,625.62,611.47,574.21,611.63,574.28Z" transform="translate(-13093 1514.22)"/></g></svg>