<svg xmlns="http://www.w3.org/2000/svg" width="842" height="304.09" viewBox="0 0 842 304.09"><defs><style>.a{fill:#fff;}.b{fill:#417abe;}</style></defs><g transform="translate(12747 -1779)"><path class="a" d="M841.879,165.18a251.209,251.209,0,0,1-27.755,1.455c-20.9,0-44.55-2.214-70.293-6.583-20.591-3.494-42.564-8.368-65.309-14.485-36.861-9.914-63.853-19.927-66.809-21.036l-.016-.006-.068-.026c-14.025-5.219-28.531-9.9-43.114-13.928-15.368-4.239-31.245-7.858-47.189-10.755-16.738-3.042-34.013-5.374-51.345-6.931-18.134-1.629-36.835-2.455-55.583-2.455h-.872c-34.29,0-68.049-1.306-100.339-3.883C283.823,84.2,255.014,80.758,227.561,76.3c-46.236-7.5-89.529-17.959-128.677-31.086-15.38-5.157-30.148-10.743-43.9-16.6-11-4.688-21.37-9.561-30.831-14.484C8.1,5.774.079.057,0,0H842ZM0,0Z" transform="translate(-12747 1779)"/><path class="b" d="M611.63,574.28c-54.87-20.42-120.4-34.1-197.49-34.07C126.03,540.33,0,449.78,0,449.78c134.31,103.74,421.21,100.1,421.21,100.1,102.14,0,181.58,19.89,242.52,47.18l.206.1c99.673,50.565,154.141,120.1,171.624,145.346a129.8,129.8,0,0,1,6.32,11.36V614.96C746.63,625.62,611.47,574.21,611.63,574.28Z" transform="translate(-12747 1329.22)"/></g></svg>