<svg xmlns="http://www.w3.org/2000/svg" width="180.48" height="31.36" viewBox="0 0 180.48 31.36"><defs><style>.a{fill:#fff;}</style></defs><g transform="translate(-615.49 -281.96)"><path class="a" d="M655.42,282.13v1.94h1.68a2.4,2.4,0,0,1,1.51.36,1.475,1.475,0,0,1,.43,1.2v24.08a1.74,1.74,0,0,1-.41,1.28,1.962,1.962,0,0,1-1.38.39h-1.83v1.94h11.21v-1.94h-1.77a2.78,2.78,0,0,1-1.75-.43,1.861,1.861,0,0,1-.51-1.49V295.5h3.93a3.028,3.028,0,0,1,2.1.61,2.27,2.27,0,0,1,.66,1.75v1.45h1.94v-9.6h-1.94v1.45a2.27,2.27,0,0,1-.66,1.75,3.011,3.011,0,0,1-2.1.61H662.6v-8.06a1.417,1.417,0,0,1,.34-1.04,1.444,1.444,0,0,1,1.08-.35h5a7.806,7.806,0,0,1,5.71,1.96c1.17,1.12,1.81,3.78,1.81,7.53h1.94V282.13H655.42Zm139.19,24.46c-1.67,3.13-3.74,4.78-6.49,4.78a5.8,5.8,0,0,1-4.62-2.02c-1.05-1.24-1.62-2.6-1.69-5.61h14.15a12.033,12.033,0,0,0-.78-4.47,8.937,8.937,0,0,0-3.14-4.24,8.385,8.385,0,0,0-4.96-1.48,8.515,8.515,0,0,0-6.57,2.96,9.713,9.713,0,0,0-2.67,7.18,9.527,9.527,0,0,0,9.38,9.62c3.88,0,6.7-2.14,8.75-6.14Zm-12.75-5.67a5.337,5.337,0,0,1,.56-2.11,7.623,7.623,0,0,1,.71-1.1,6.214,6.214,0,0,1,.64-.72,5,5,0,0,1,3.09-1.47,4.434,4.434,0,0,1,2.32.45,6.291,6.291,0,0,1,2.01,1.8,4.2,4.2,0,0,1,.6,1.02,2.745,2.745,0,0,1,.16,1.87,1.448,1.448,0,0,1-.56.73,2.384,2.384,0,0,1-1.01.4h-8.56A6.7,6.7,0,0,1,781.86,300.92Zm-87.29-6.38a3.428,3.428,0,0,0-2.56-.98,4.859,4.859,0,0,0-3.96,2.02,15.4,15.4,0,0,0-2.74,5.61v-7.63h-6.83v1.94h1.45a2.269,2.269,0,0,1,1.75.66,3.012,3.012,0,0,1,.61,2.1v11.79a1.164,1.164,0,0,1-.5.94,2.441,2.441,0,0,1-1.5.39h-1.81v1.94H690.6v-1.94h-2.51a2.988,2.988,0,0,1-1.73-.38,1.284,1.284,0,0,1-.51-1.1v-3.88a18.848,18.848,0,0,1,1.27-5.78,9.169,9.169,0,0,1,2.34-3.88,3.11,3.11,0,0,1,1.96-1.01c.27,0,.4.11.4.32a2.527,2.527,0,0,1-.32.65,2.721,2.721,0,0,0-.34,1.31,2.412,2.412,0,0,0,.58,1.71,1.991,1.991,0,0,0,1.53.63,2.049,2.049,0,0,0,1.61-.74,3.036,3.036,0,0,0,.64-2.07A3.521,3.521,0,0,0,694.57,294.54Zm16.76,1.89a8.831,8.831,0,0,0-6.69-2.88,8.615,8.615,0,0,0-6.6,2.91,10.418,10.418,0,0,0-.01,13.94,8.5,8.5,0,0,0,6.5,2.91,9.31,9.31,0,0,0,4.84-1.33,9.059,9.059,0,0,0,3.46-3.62,9.348,9.348,0,0,0,1.21-4.94A9.2,9.2,0,0,0,711.33,296.43Zm-2.7,12.77a4.672,4.672,0,0,1-3.99,2.17,4.544,4.544,0,0,1-3.89-2.17c-1-1.45-1.51-2.7-1.51-5.84,0-3.08.51-4.3,1.52-5.72a4.567,4.567,0,0,1,3.88-2.14,4.75,4.75,0,0,1,4.02,2.05c1,1.36,1.51,2.54,1.51,5.59C710.16,306.42,709.65,307.75,708.63,309.2Zm70.28-13.7h1.22v-1.94h-8.18v1.94h1.26c1.18.02,1.77.22,1.77,1.41a1.757,1.757,0,0,1-.11.59l-4.77,10.72-5.24-10.91a2.243,2.243,0,0,1-.21-.93c0-.38.13-.88.54-.88h1.94v-1.94h-9.18v1.94h1.89c.47,0,.74.56,1.02,1.18l7.77,16.64h1.14l7.24-16.17a3.564,3.564,0,0,1,.96-1.31A1.563,1.563,0,0,1,778.91,295.5Zm-22.02,15.45a1.25,1.25,0,0,1-.34-.99v-16.4h-7.38v1.94h1.14a3,3,0,0,1,1.95.56.551.551,0,0,0,.09.07c.02.02.04.05.06.07a3.077,3.077,0,0,1,.58,2.05v11.34a1.563,1.563,0,0,1-1.79,1.77h-1.8v1.94h10.55v-1.94h-1.84A1.738,1.738,0,0,1,756.89,310.95Zm-10.31-1.01a3.1,3.1,0,0,1-2.45,1.43,2.647,2.647,0,0,1-1.98-.98,3.656,3.656,0,0,1-.78-2.52V295.5h6.39v-1.94H734.04v1.94h1.45a2.269,2.269,0,0,1,1.75.66,3.012,3.012,0,0,1,.61,2.1v11.79l.09-.52a4.434,4.434,0,0,0,1.29,2.45,5.286,5.286,0,0,0,3.83,1.34,5.473,5.473,0,0,0,4.32-1.91c1.11-1.27,1.71-2.93,1.79-5.56h-1.41A7.022,7.022,0,0,1,746.58,309.94Zm-12.7.98a2.032,2.032,0,0,1-.48-1.53v-9.26a7.021,7.021,0,0,0-.8-3.37,5.417,5.417,0,0,0-2.13-2.44,6.51,6.51,0,0,0-3.29-.77,7.775,7.775,0,0,0-4.08,1.08,9.342,9.342,0,0,0-3.13,3.23,33.031,33.031,0,0,0-.51-4.3h-6.64v1.94h1.01a2.752,2.752,0,0,1,1.97.65,2.534,2.534,0,0,1,.69,1.92V309.9a1.281,1.281,0,0,1-.54,1.05,2.511,2.511,0,0,1-1.57.42H713v1.94h10.46v-1.94h-1.37a2.388,2.388,0,0,1-1.63-.45,1.994,1.994,0,0,1-.5-1.53v-6.96a6.618,6.618,0,0,1,1.59-4.64,4.959,4.959,0,0,1,3.97-1.92,3.916,3.916,0,0,1,3.58,1.9,6.442,6.442,0,0,1,.84,3.73v8.1a1.6,1.6,0,0,1-.55,1.33,3.147,3.147,0,0,1-1.94.44h-.99v1.94h10.42v-1.94h-1.39A2.33,2.33,0,0,1,733.88,310.92Zm5.13-24.05a2.391,2.391,0,0,0,2.37-2.35,2.308,2.308,0,0,0-.72-1.69,2.375,2.375,0,0,0-4.03,1.67,2.3,2.3,0,0,0,.71,1.66A2.223,2.223,0,0,0,739.01,286.87Z"/><path class="a" d="M620.17,285.23a18.459,18.459,0,0,0-1.63,1.29l6.53,13.66Z"/><path class="a" d="M624.66,281.96a17.911,17.911,0,0,0-1.93.58l1.93,15.9Z"/><path class="a" d="M616.01,294.49c-.2.71-.38,1.43-.52,2.17l11.28,6.03Z"/><path class="a" d="M617.19,289.71c-.41.59-.79,1.2-1.15,1.84l9.91,10.23Z"/><path class="a" d="M616.19,299.57c.02.76.08,1.5.17,2.24l11.27,1.55Z"/><path class="a" d="M620.44,308.53q.675.84,1.41,1.59l7.36-6.09Z"/><path class="a" d="M624.14,311.54a18.362,18.362,0,0,0,1.81.95l3.92-8.33Z"/><path class="a" d="M617.69,304.4q.375,1.05.84,2.04l9.92-2.66Z"/><path class="a" d="M628.54,313.11a16.349,16.349,0,0,0,1.99.19v-9.11Z"/><path class="a" d="M642.14,285.23a18.459,18.459,0,0,1,1.63,1.29l-6.53,13.66Z"/><path class="a" d="M637.66,281.96a17.911,17.911,0,0,1,1.93.58l-1.93,15.9Z"/><path class="a" d="M646.3,294.49c.2.71.38,1.43.52,2.17l-11.28,6.03Z"/><path class="a" d="M645.13,289.71c.41.59.79,1.2,1.15,1.84l-9.91,10.23Z"/><path class="a" d="M646.12,299.57c-.02.76-.08,1.5-.17,2.24l-11.27,1.55Z"/><path class="a" d="M641.88,308.53q-.675.84-1.41,1.59l-7.36-6.09Z"/><path class="a" d="M638.18,311.54a18.362,18.362,0,0,1-1.81.95l-3.92-8.33Z"/><path class="a" d="M644.62,304.4q-.375,1.05-.84,2.04l-9.92-2.66Z"/><path class="a" d="M633.77,313.11a16.349,16.349,0,0,1-1.99.19v-9.11Z"/></g></svg>